<?xml version="1.0" standalone="no"?>
<!DOCTYPE svg PUBLIC "-//W3C//DTD SVG 20010904//EN"
 "http://www.w3.org/TR/2001/REC-SVG-20010904/DTD/svg10.dtd">
<svg version="1.0" xmlns="http://www.w3.org/2000/svg"
 width="512.000000pt" height="512.000000pt" viewBox="0 0 512.000000 512.000000"
 preserveAspectRatio="xMidYMid meet">
<metadata>
Created by potrace 1.14, written by Peter Selinger 2001-2017
</metadata>
<g transform="translate(0.000000,512.000000) scale(0.100000,-0.100000)"
fill="#000000" stroke="none">
<path d="M0 2560 l0 -2560 2560 0 2560 0 0 2560 0 2560 -2560 0 -2560 0 0
-2560z m2860 1846 c260 -45 464 -123 685 -259 405 -251 707 -661 825 -1121 34
-133 36 -150 51 -337 37 -469 -104 -918 -408 -1297 -208 -260 -482 -461 -783
-575 -225 -85 -392 -117 -635 -122 -257 -4 -465 31 -693 117 -371 139 -706
413 -926 756 -121 188 -223 455 -256 667 -6 39 -13 81 -16 95 -2 14 -7 90 -11
170 -11 278 47 578 157 816 155 336 396 617 699 816 164 108 411 212 599 254
197 43 525 53 712 20z"/>
<path d="M2360 3855 c-639 -101 -1110 -651 -1110 -1295 0 -719 591 -1310 1310
-1310 719 0 1310 591 1310 1310 0 508 -296 971 -757 1187 -230 107 -506 147
-753 108z"/>
</g>
</svg>
